<svg xmlns="http://www.w3.org/2000/svg" xmlns:xlink="http://www.w3.org/1999/xlink" width="500" zoomAndPan="magnify" viewBox="0 0 375 374.999991" height="500" preserveAspectRatio="xMidYMid meet" version="1.0"><path fill="#166534" d="M 187.5 0 C 184.429688 0 181.363281 0.0742188 178.300781 0.226562 C 175.234375 0.375 172.175781 0.601562 169.121094 0.902344 C 166.066406 1.203125 163.023438 1.578125 159.988281 2.03125 C 156.953125 2.480469 153.929688 3.003906 150.921875 3.601562 C 147.910156 4.203125 144.917969 4.875 141.941406 5.617188 C 138.964844 6.363281 136.007812 7.183594 133.070312 8.074219 C 130.136719 8.964844 127.222656 9.925781 124.332031 10.960938 C 121.445312 11.996094 118.582031 13.097656 115.746094 14.273438 C 112.910156 15.445312 110.105469 16.691406 107.332031 18.003906 C 104.558594 19.3125 101.820312 20.691406 99.113281 22.140625 C 96.40625 23.585938 93.738281 25.097656 91.105469 26.675781 C 88.472656 28.253906 85.882812 29.894531 83.332031 31.597656 C 80.777344 33.304688 78.269531 35.070312 75.804688 36.898438 C 73.339844 38.726562 70.921875 40.613281 68.550781 42.558594 C 66.179688 44.507812 63.855469 46.511719 61.582031 48.570312 C 59.308594 50.632812 57.085938 52.746094 54.917969 54.917969 C 52.746094 57.085938 50.632812 59.308594 48.570312 61.582031 C 46.511719 63.855469 44.507812 66.179688 42.558594 68.550781 C 40.613281 70.921875 38.726562 73.339844 36.898438 75.804688 C 35.070312 78.269531 33.304688 80.777344 31.597656 83.332031 C 29.894531 85.882812 28.253906 88.472656 26.675781 91.105469 C 25.097656 93.738281 23.585938 96.40625 22.140625 99.113281 C 20.691406 101.820312 19.3125 104.558594 18.003906 107.332031 C 16.691406 110.105469 15.445312 112.910156 14.273438 115.746094 C 13.097656 118.582031 11.996094 121.445312 10.960938 124.332031 C 9.925781 127.222656 8.964844 130.136719 8.074219 133.070312 C 7.183594 136.007812 6.363281 138.964844 5.621094 141.941406 C 4.875 144.917969 4.203125 147.910156 3.601562 150.921875 C 3.003906 153.929688 2.480469 156.953125 2.03125 159.988281 C 1.578125 163.023438 1.203125 166.066406 0.902344 169.121094 C 0.601562 172.175781 0.375 175.234375 0.226562 178.300781 C 0.0742188 181.363281 0 184.429688 0 187.5 C 0 190.570312 0.0742188 193.636719 0.226562 196.699219 C 0.375 199.765625 0.601562 202.824219 0.902344 205.878906 C 1.203125 208.933594 1.578125 211.976562 2.03125 215.011719 C 2.480469 218.046875 3.003906 221.070312 3.601562 224.078125 C 4.203125 227.089844 4.875 230.082031 5.621094 233.058594 C 6.363281 236.035156 7.183594 238.992188 8.074219 241.929688 C 8.964844 244.863281 9.925781 247.777344 10.960938 250.667969 C 11.996094 253.554688 13.097656 256.417969 14.273438 259.253906 C 15.445312 262.089844 16.691406 264.894531 18.003906 267.667969 C 19.3125 270.441406 20.691406 273.179688 22.140625 275.886719 C 23.585938 278.59375 25.097656 281.261719 26.675781 283.894531 C 28.253906 286.527344 29.894531 289.117188 31.597656 291.667969 C 33.304688 294.222656 35.070312 296.730469 36.898438 299.195312 C 38.726562 301.660156 40.613281 304.078125 42.558594 306.449219 C 44.507812 308.820312 46.511719 311.144531 48.570312 313.417969 C 50.632812 315.691406 52.746094 317.914062 54.917969 320.082031 C 57.085938 322.253906 59.308594 324.367188 61.582031 326.429688 C 63.855469 328.488281 66.179688 330.492188 68.550781 332.441406 C 70.921875 334.386719 73.339844 336.273438 75.804688 338.101562 C 78.269531 339.929688 80.777344 341.695312 83.332031 343.402344 C 85.882812 345.105469 88.472656 346.746094 91.105469 348.324219 C 93.738281 349.902344 96.40625 351.414062 99.113281 352.859375 C 101.820312 354.308594 104.558594 355.6875 107.332031 356.996094 C 110.105469 358.308594 112.910156 359.554688 115.746094 360.726562 C 118.582031 361.902344 121.445312 363.003906 124.332031 364.039062 C 127.222656 365.074219 130.136719 366.035156 133.070312 366.925781 C 136.007812 367.816406 138.964844 368.636719 141.941406 369.378906 C 144.917969 370.125 147.910156 370.796875 150.921875 371.398438 C 153.929688 371.996094 156.953125 372.519531 159.988281 372.96875 C 163.023438 373.421875 166.066406 373.796875 169.121094 374.097656 C 172.175781 374.398438 175.234375 374.625 178.300781 374.773438 C 181.363281 374.925781 184.429688 375 187.5 375 C 190.570312 375 193.636719 374.925781 196.699219 374.773438 C 199.765625 374.625 202.824219 374.398438 205.878906 374.097656 C 208.933594 373.796875 211.976562 373.421875 215.011719 372.96875 C 218.046875 372.519531 221.070312 371.996094 224.078125 371.398438 C 227.089844 370.796875 230.082031 370.125 233.058594 369.378906 C 236.035156 368.636719 238.992188 367.816406 241.929688 366.925781 C 244.863281 366.035156 247.777344 365.074219 250.667969 364.039062 C 253.554688 363.003906 256.417969 361.902344 259.253906 360.726562 C 262.089844 359.554688 264.894531 358.308594 267.667969 356.996094 C 270.441406 355.6875 273.179688 354.308594 275.886719 352.859375 C 278.59375 351.414062 281.261719 349.902344 283.894531 348.324219 C 286.527344 346.746094 289.117188 345.105469 291.667969 343.402344 C 294.222656 341.695312 296.730469 339.929688 299.195312 338.101562 C 301.660156 336.273438 304.078125 334.386719 306.449219 332.441406 C 308.820312 330.492188 311.144531 328.488281 313.417969 326.429688 C 315.691406 324.367188 317.914062 322.253906 320.082031 320.082031 C 322.253906 317.914062 324.367188 315.691406 326.429688 313.417969 C 328.488281 311.144531 330.492188 308.820312 332.441406 306.449219 C 334.386719 304.078125 336.273438 301.660156 338.101562 299.195312 C 339.929688 296.730469 341.695312 294.222656 343.402344 291.667969 C 345.105469 289.117188 346.746094 286.527344 348.324219 283.894531 C 349.902344 281.261719 351.414062 278.59375 352.859375 275.886719 C 354.308594 273.179688 355.6875 270.441406 356.996094 267.667969 C 358.308594 264.894531 359.554688 262.089844 360.726562 259.253906 C 361.902344 256.417969 363.003906 253.554688 364.039062 250.667969 C 365.074219 247.777344 366.035156 244.863281 366.925781 241.929688 C 367.816406 238.992188 368.636719 236.035156 369.378906 233.058594 C 370.125 230.082031 370.796875 227.089844 371.398438 224.078125 C 371.996094 221.070312 372.519531 218.046875 372.96875 215.011719 C 373.421875 211.976562 373.796875 208.933594 374.097656 205.878906 C 374.398438 202.824219 374.625 199.765625 374.773438 196.699219 C 374.925781 193.636719 375 190.570312 375 187.5 C 375 184.429688 374.925781 181.363281 374.773438 178.300781 C 374.625 175.234375 374.398438 172.175781 374.097656 169.121094 C 373.796875 166.066406 373.421875 163.023438 372.96875 159.988281 C 372.519531 156.953125 371.996094 153.929688 371.398438 150.921875 C 370.796875 147.910156 370.125 144.917969 369.378906 141.941406 C 368.636719 138.964844 367.816406 136.007812 366.925781 133.070312 C 366.035156 130.136719 365.074219 127.222656 364.039062 124.332031 C 363.003906 121.445312 361.902344 118.582031 360.726562 115.746094 C 359.554688 112.910156 358.308594 110.105469 356.996094 107.332031 C 355.6875 104.558594 354.308594 101.820312 352.859375 99.113281 C 351.414062 96.40625 349.902344 93.738281 348.324219 91.105469 C 346.746094 88.472656 345.105469 85.882812 343.402344 83.332031 C 341.695312 80.777344 339.929688 78.269531 338.101562 75.804688 C 336.273438 73.339844 334.386719 70.921875 332.441406 68.550781 C 330.492188 66.179688 328.488281 63.855469 326.429688 61.582031 C 324.367188 59.308594 322.253906 57.085938 320.082031 54.917969 C 317.914062 52.746094 315.691406 50.632812 313.417969 48.570312 C 311.144531 46.511719 308.820312 44.507812 306.449219 42.558594 C 304.078125 40.613281 301.660156 38.726562 299.195312 36.898438 C 296.730469 35.070312 294.222656 33.304688 291.667969 31.597656 C 289.117188 29.894531 286.527344 28.253906 283.894531 26.675781 C 281.261719 25.097656 278.59375 23.585938 275.886719 22.140625 C 273.179688 20.691406 270.441406 19.3125 267.667969 18.003906 C 264.894531 16.691406 262.089844 15.445312 259.253906 14.273438 C 256.417969 13.097656 253.554688 11.996094 250.667969 10.960938 C 247.777344 9.925781 244.863281 8.964844 241.929688 8.074219 C 238.992188 7.183594 236.035156 6.363281 233.058594 5.617188 C 230.082031 4.875 227.089844 4.203125 224.078125 3.601562 C 221.070312 3.003906 218.046875 2.480469 215.011719 2.03125 C 211.976562 1.578125 208.933594 1.203125 205.878906 0.902344 C 202.824219 0.601562 199.765625 0.375 196.699219 0.226562 C 193.636719 0.0742188 190.570312 0 187.5 0 Z M 298.59375 134.375 L 175.46875 271.875 C 174.402344 273.066406 173.226562 274.140625 171.941406 275.089844 C 170.660156 276.042969 169.289062 276.855469 167.839844 277.527344 C 166.386719 278.199219 164.882812 278.714844 163.328125 279.078125 C 161.769531 279.445312 160.191406 279.648438 158.59375 279.6875 C 156.9375 279.78125 155.292969 279.703125 153.652344 279.449219 C 152.015625 279.195312 150.421875 278.769531 148.871094 278.179688 C 147.324219 277.585938 145.851562 276.835938 144.464844 275.933594 C 143.074219 275.027344 141.792969 273.988281 140.625 272.8125 L 77.1875 207.65625 C 76.648438 207.109375 76.136719 206.535156 75.652344 205.9375 C 75.167969 205.339844 74.714844 204.71875 74.292969 204.078125 C 73.871094 203.433594 73.480469 202.773438 73.121094 202.09375 C 72.765625 201.414062 72.441406 200.714844 72.152344 200.003906 C 71.863281 199.289062 71.609375 198.566406 71.390625 197.828125 C 71.171875 197.089844 70.992188 196.34375 70.847656 195.589844 C 70.703125 194.835938 70.59375 194.074219 70.523438 193.308594 C 70.453125 192.542969 70.421875 191.773438 70.429688 191.007812 C 70.433594 190.238281 70.476562 189.46875 70.558594 188.707031 C 70.636719 187.941406 70.757812 187.183594 70.910156 186.429688 C 71.066406 185.675781 71.257812 184.933594 71.488281 184.199219 C 71.714844 183.464844 71.980469 182.742188 72.277344 182.035156 C 72.578125 181.324219 72.910156 180.632812 73.277344 179.957031 C 73.644531 179.28125 74.046875 178.625 74.476562 177.992188 C 74.910156 177.355469 75.371094 176.742188 75.863281 176.148438 C 76.355469 175.558594 76.875 174.992188 77.421875 174.453125 C 77.96875 173.914062 78.542969 173.402344 79.140625 172.917969 C 79.738281 172.433594 80.359375 171.980469 81 171.558594 C 81.644531 171.136719 82.304688 170.746094 82.984375 170.386719 C 83.664062 170.03125 84.363281 169.707031 85.074219 169.417969 C 85.789062 169.128906 86.511719 168.875 87.25 168.65625 C 87.988281 168.4375 88.734375 168.257812 89.488281 168.113281 C 90.242188 167.96875 91.003906 167.859375 91.769531 167.789062 C 92.535156 167.71875 93.304688 167.6875 94.070312 167.695312 C 94.839844 167.699219 95.609375 167.742188 96.371094 167.824219 C 97.136719 167.902344 97.894531 168.023438 98.648438 168.175781 C 99.402344 168.332031 100.144531 168.523438 100.878906 168.753906 C 101.613281 168.980469 102.335938 169.246094 103.042969 169.542969 C 103.753906 169.84375 104.445312 170.175781 105.121094 170.542969 C 105.796875 170.910156 106.453125 171.3125 107.085938 171.742188 C 107.722656 172.175781 108.335938 172.636719 108.929688 173.128906 C 109.519531 173.621094 110.085938 174.140625 110.625 174.6875 L 157.5 221.5625 L 264.0625 102.5 C 264.585938 101.933594 265.132812 101.394531 265.707031 100.882812 C 266.28125 100.371094 266.878906 99.886719 267.503906 99.433594 C 268.125 98.980469 268.769531 98.558594 269.433594 98.167969 C 270.097656 97.78125 270.777344 97.421875 271.476562 97.101562 C 272.175781 96.777344 272.886719 96.488281 273.613281 96.234375 C 274.339844 95.984375 275.078125 95.765625 275.828125 95.585938 C 276.574219 95.40625 277.332031 95.261719 278.09375 95.15625 C 278.855469 95.050781 279.621094 94.980469 280.390625 94.949219 C 281.160156 94.917969 281.929688 94.925781 282.699219 94.96875 C 283.464844 95.015625 284.230469 95.097656 284.992188 95.214844 C 285.753906 95.335938 286.503906 95.492188 287.25 95.6875 C 287.996094 95.878906 288.730469 96.109375 289.453125 96.375 C 290.175781 96.640625 290.882812 96.941406 291.574219 97.277344 C 292.265625 97.613281 292.941406 97.980469 293.597656 98.382812 C 294.253906 98.785156 294.890625 99.21875 295.503906 99.683594 C 296.121094 100.144531 296.710938 100.640625 297.273438 101.160156 C 297.839844 101.683594 298.378906 102.230469 298.890625 102.808594 C 299.402344 103.382812 299.886719 103.980469 300.339844 104.605469 C 300.792969 105.226562 301.210938 105.871094 301.601562 106.535156 C 301.992188 107.199219 302.347656 107.878906 302.671875 108.578125 C 302.992188 109.277344 303.28125 109.988281 303.535156 110.71875 C 303.785156 111.445312 304.003906 112.183594 304.183594 112.929688 C 304.363281 113.679688 304.503906 114.433594 304.613281 115.199219 C 304.71875 115.960938 304.785156 116.726562 304.816406 117.496094 C 304.847656 118.265625 304.839844 119.03125 304.792969 119.800781 C 304.75 120.570312 304.667969 121.335938 304.546875 122.09375 C 304.425781 122.855469 304.269531 123.609375 304.074219 124.351562 C 303.882812 125.097656 303.652344 125.832031 303.382812 126.554688 C 303.117188 127.277344 302.816406 127.984375 302.480469 128.675781 C 302.144531 129.371094 301.777344 130.042969 301.375 130.699219 C 300.972656 131.355469 300.539062 131.992188 300.074219 132.605469 C 299.609375 133.21875 299.117188 133.808594 298.59375 134.375 Z M 298.59375 134.375 " fill-opacity="1" fill-rule="nonzero"/></svg>