<svg xmlns="http://www.w3.org/2000/svg" xmlns:xlink="http://www.w3.org/1999/xlink" width="500" zoomAndPan="magnify" viewBox="0 0 375 374.999991" height="500" preserveAspectRatio="xMidYMid meet" version="1.0"><path fill="#991b1b" d="M 187.5 0 C 83.90625 0 0 83.90625 0 187.5 C 0 291.09375 83.90625 375 187.5 375 C 291.09375 375 375 291.09375 375 187.5 C 375 83.90625 291.09375 0 187.5 0 Z M 187.5 287.8125 C 172.3125 287.8125 159.9375 275.4375 159.9375 260.25 C 159.9375 245.0625 172.3125 232.6875 187.5 232.6875 C 202.6875 232.6875 215.0625 245.0625 215.0625 260.25 C 215.0625 275.4375 202.6875 287.8125 187.5 287.8125 Z M 215.625 189.84375 C 215.8125 205.03125 203.34375 217.5 187.96875 217.5 C 172.78125 217.5 160.3125 205.03125 160.3125 189.84375 L 160.3125 114.65625 C 160.3125 99.46875 172.78125 87 187.96875 87 C 203.15625 87 215.625 99.46875 215.625 114.65625 Z M 215.625 189.84375 " fill-opacity="1" fill-rule="nonzero"/></svg>