<svg xmlns="http://www.w3.org/2000/svg" xmlns:xlink="http://www.w3.org/1999/xlink" width="500" zoomAndPan="magnify" viewBox="0 0 375 374.999991" height="500" preserveAspectRatio="xMidYMid meet" version="1.0"><path fill="#854d0e" d="M 187.5 0 C 84.488281 0 0.679688 83.804688 0.679688 186.820312 C 10.941406 434.660156 364.09375 434.582031 374.320312 186.820312 C 374.320312 83.804688 290.511719 0 187.5 0 Z M 264.808594 265.621094 C 255.332031 275.089844 240.019531 275.589844 229.949219 266.828125 L 176.597656 220.359375 C 167.332031 212.292969 162.023438 200.617188 162.023438 188.339844 L 162.023438 84.917969 C 162.890625 51.382812 212.082031 51.28125 212.976562 84.917969 C 212.976562 84.917969 212.976562 183.023438 212.976562 183.023438 L 263.789062 228.503906 C 274.601562 237.792969 275.101562 255.753906 264.808594 265.621094 Z M 264.808594 265.621094 " fill-opacity="1" fill-rule="nonzero"/></svg>